# Blender v2.82 (sub 7) OBJ File: 'Assets.blend'
# www.blender.org
mtllib Gate.mtl.mtl
o Gate_Cube.004
v -1.000000 -1.000000 1.000000
v -1.000000 1.000000 1.000000
v -1.000000 -1.000000 -1.000000
v -1.000000 1.000000 -1.000000
v 1.000000 -1.000000 1.000000
v 1.000000 1.000000 1.000000
v 1.000000 -1.000000 -1.000000
v 1.000000 1.000000 -1.000000
v 0.800000 -1.000000 -1.000000
v -0.800000 -1.000000 -1.000000
v -0.800000 1.000000 -1.000000
v 0.800000 1.000000 -1.000000
v -0.800000 -1.000000 1.000000
v 0.800000 -1.000000 1.000000
v 0.800000 1.000000 1.000000
v -0.800000 1.000000 1.000000
v -1.000000 -1.000000 -0.800000
v -1.000000 -1.000000 0.800000
v -1.000000 1.000000 0.800000
v -1.000000 1.000000 -0.800000
v 1.000000 -1.000000 0.800000
v 1.000000 -1.000000 -0.800000
v 1.000000 1.000000 -0.800000
v 1.000000 1.000000 0.800000
v 0.800000 1.000000 -0.800000
v 0.800000 1.000000 0.800000
v -0.800000 1.000000 -0.800000
v -0.800000 1.000000 0.800000
v -0.800000 -1.000000 -0.800000
v -0.800000 -1.000000 0.800000
v 0.800000 -1.000000 -0.800000
v 0.800000 -1.000000 0.800000
v -1.000000 0.800000 1.000000
v -1.000000 0.800000 -1.000000
v 1.000000 0.800000 -1.000000
v 1.000000 0.800000 1.000000
v 0.800000 0.800000 1.000000
v -0.800000 0.800000 1.000000
v -0.800000 0.800000 -1.000000
v 0.800000 0.800000 -1.000000
v 1.000000 0.800000 -0.800000
v 1.000000 0.800000 0.800000
v -1.000000 0.800000 0.800000
v -1.000000 0.800000 -0.800000
v -0.800000 0.800000 0.800000
v 0.800000 0.800000 0.800000
v 0.800000 0.800000 -0.800000
v -0.800000 0.800000 -0.800000
vt 0.500000 0.166667
vt 0.625000 0.166667
vt 0.625000 0.250000
vt 0.500000 0.250000
vt 0.500000 0.416667
vt 0.625000 0.416667
vt 0.625000 0.500000
vt 0.500000 0.500000
vt 0.500000 0.666667
vt 0.625000 0.666667
vt 0.625000 0.750000
vt 0.500000 0.750000
vt 0.500000 0.916667
vt 0.625000 0.916667
vt 0.625000 1.000000
vt 0.500000 1.000000
vt 0.291667 0.666667
vt 0.375000 0.666667
vt 0.375000 0.750000
vt 0.291667 0.750000
vt 0.791667 0.666667
vt 0.875000 0.666667
vt 0.875000 0.750000
vt 0.791667 0.750000
vt 0.708333 0.666667
vt 0.708333 0.750000
vt 0.125000 0.666667
vt 0.208333 0.666667
vt 0.208333 0.750000
vt 0.125000 0.750000
vt 0.625000 0.833333
vt 0.500000 0.833333
vt 0.625000 0.333333
vt 0.500000 0.333333
vt 0.125000 0.500000
vt 0.208333 0.500000
vt 0.208333 0.583333
vt 0.125000 0.583333
vt 0.708333 0.500000
vt 0.791667 0.500000
vt 0.791667 0.583333
vt 0.708333 0.583333
vt 0.625000 0.583333
vt 0.875000 0.500000
vt 0.875000 0.583333
vt 0.291667 0.500000
vt 0.375000 0.500000
vt 0.375000 0.583333
vt 0.291667 0.583333
vt 0.500000 0.583333
vt 0.500000 0.000000
vt 0.625000 0.000000
vt 0.625000 0.083333
vt 0.500000 0.083333
vt 0.375000 0.000000
vt 0.375000 0.083333
vt 0.375000 0.250000
vt 0.375000 0.333333
vt 0.375000 0.833333
vt 0.375000 0.916667
vt 0.375000 1.000000
vt 0.375000 0.416667
vt 0.375000 0.166667
vt 0.000000 0.000000
vt 0.000000 0.000000
vt 0.000000 0.000000
vt 0.000000 0.000000
vn -1.0000 0.0000 0.0000
vn 0.0000 0.0000 -1.0000
vn 1.0000 0.0000 0.0000
vn 0.0000 0.0000 1.0000
vn 0.0000 -1.0000 0.0000
vn 0.0000 1.0000 0.0000
usemtl None
s off
f 44/1/1 20/2/1 4/3/1 34/4/1
f 40/5/2 12/6/2 8/7/2 35/8/2
f 42/9/3 24/10/3 6/11/3 36/12/3
f 38/13/4 16/14/4 2/15/4 33/16/4
f 32/17/5 21/18/5 5/19/5 14/20/5
f 28/21/6 19/22/6 2/23/6 16/24/6
f 24/10/6 26/25/6 15/26/6 6/11/6
f 26/25/6 28/21/6 16/24/6 15/26/6
f 18/27/5 30/28/5 13/29/5 1/30/5
f 36/12/4 6/11/4 15/31/4 37/32/4
f 37/32/4 15/31/4 16/14/4 38/13/4
f 34/4/2 4/3/2 11/33/2 39/34/2
f 39/34/2 11/33/2 12/6/2 40/5/2
f 3/35/5 10/36/5 29/37/5 17/38/5
f 12/39/6 11/40/6 27/41/6 25/42/6
f 8/7/6 12/39/6 25/42/6 23/43/6
f 23/43/6 25/42/6 26/25/6 24/10/6
f 11/40/6 4/44/6 20/45/6 27/41/6
f 27/41/6 20/45/6 19/22/6 28/21/6
f 9/46/5 7/47/5 22/48/5 31/49/5
f 35/8/3 8/7/3 23/43/3 41/50/3
f 41/50/3 23/43/3 24/10/3 42/9/3
f 33/51/1 2/52/1 19/53/1 43/54/1
f 43/54/1 19/53/1 20/2/1 44/1/1
f 1/55/1 33/51/1 43/54/1 18/56/1
f 7/47/3 35/8/3 41/50/3 22/48/3
f 3/57/2 34/4/2 39/34/2 10/58/2
f 5/19/4 36/12/4 37/32/4 14/59/4
f 13/60/4 38/13/4 33/16/4 1/61/4
f 21/18/3 42/9/3 36/12/3 5/19/3
f 9/62/2 40/5/2 35/8/2 7/47/2
f 17/63/1 44/1/1 34/4/1 3/57/1
f 39/34/5 40/5/5 47/64/5 48/65/5
f 25/42/4 27/41/4 48/65/4 47/64/4
f 27/41/3 28/21/3 45/66/3 48/65/3
f 44/1/5 48/65/5 45/66/5 43/54/5
f 26/25/2 46/67/2 45/66/2 28/21/2
f 37/32/5 38/13/5 45/66/5 46/67/5
f 41/50/5 42/9/5 46/67/5 47/64/5
f 26/25/1 25/42/1 47/64/1 46/67/1
f 29/37/4 48/65/4 44/1/4 17/63/4
f 10/36/3 39/34/3 48/65/3 29/37/3
f 30/28/2 18/56/2 43/54/2 45/66/2
f 30/28/3 45/66/3 38/13/3 13/60/3
f 31/49/4 22/48/4 41/50/4 47/64/4
f 9/46/1 31/49/1 47/64/1 40/5/1
f 32/17/1 14/59/1 37/32/1 46/67/1
f 21/18/2 32/17/2 46/67/2 42/9/2
